<svg width="74" height="14" viewBox="0 0 74 14" fill="none" xmlns="http://www.w3.org/2000/svg">
<g clip-path="url(#clip0_5_40)">
<path d="M5.98882 13.862C4.53645 13.862 3.37455 13.6206 2.50312 13.1379C1.6317 12.6553 1.00339 11.9795 0.618197 11.1106C0.233003 10.2418 0.0404053 9.22813 0.0404053 8.06966L0.0782934 0.268127H3.58293L3.54504 7.67144C3.53872 8.61269 3.62397 9.33974 3.80079 9.85261C3.98391 10.3594 4.25229 10.7124 4.60591 10.9115C4.96584 11.1046 5.40788 11.2011 5.93199 11.2011C6.46242 11.2011 6.90445 11.0986 7.25807 10.8934C7.61168 10.6883 7.8769 10.3293 8.05371 9.81641C8.23053 9.30354 8.31893 8.58855 8.31893 7.67144V0.268127H11.8046V8.12397C11.8046 9.922 11.3405 11.3278 10.4122 12.3415C9.49031 13.3552 8.01583 13.862 5.98882 13.862ZM14.8533 13.7172V0.268127H18.1495L22.9613 7.65334L24.761 11.2735H24.1169L23.5486 6.18716V0.268127H26.7501V13.7172H23.2076L18.6421 6.51298L16.5772 2.38595H17.3539L18.0548 7.90675V13.7172H14.8533ZM30.2564 13.7172V0.268127H33.8178V13.7172H30.2564Z" fill="#359E9A"/>
<path d="M41.3039 13.862C40.6345 13.862 39.9936 13.8137 39.3811 13.7172C38.7749 13.6267 38.2475 13.5181 37.7992 13.3914C37.351 13.2586 37.0351 13.1379 36.852 13.0293L37.2878 10.4047C37.5214 10.5314 37.8371 10.6611 38.235 10.7939C38.6328 10.9266 39.0716 11.0412 39.5516 11.1378C40.0377 11.2283 40.5272 11.2735 41.0197 11.2735C41.6828 11.2735 42.1627 11.183 42.4595 11.002C42.7626 10.821 42.9141 10.5314 42.9141 10.1332C42.9141 9.84356 42.8225 9.5992 42.6394 9.40009C42.4564 9.19494 42.1533 8.98678 41.7301 8.7756C41.3134 8.56443 40.7545 8.29894 40.0536 7.97916C39.46 7.70764 38.9138 7.38786 38.4149 7.01981C37.916 6.64572 37.5151 6.19922 37.212 5.68033C36.9089 5.1554 36.7573 4.53393 36.7573 3.81593C36.7573 3.20049 36.8774 2.6635 37.1173 2.20494C37.3635 1.74035 37.7076 1.35419 38.1497 1.04647C38.598 0.738753 39.1284 0.509475 39.741 0.358634C40.3536 0.201757 41.0323 0.12332 41.7775 0.12332C42.8383 0.12332 43.7034 0.216842 44.3728 0.403886C45.0422 0.590929 45.5031 0.756856 45.7557 0.901664L45.2063 3.4177C44.9222 3.20653 44.4834 3.01344 43.8897 2.83847C43.3025 2.65746 42.6994 2.56696 42.0806 2.56696C41.6385 2.56696 41.2755 2.61522 40.9913 2.71177C40.7071 2.80227 40.4957 2.93199 40.3567 3.10094C40.2177 3.26988 40.1483 3.46597 40.1483 3.68922C40.1483 3.96073 40.2304 4.20209 40.3946 4.41326C40.5651 4.61841 40.8272 4.82355 41.1807 5.02869C41.5407 5.22781 42.0048 5.45106 42.5731 5.69843C43.1793 5.95788 43.7192 6.22336 44.1928 6.49488C44.6728 6.76639 45.0801 7.06205 45.4147 7.38183C45.7494 7.70161 46.002 8.06665 46.1725 8.47694C46.3494 8.8812 46.4377 9.3488 46.4377 9.87976C46.4377 10.6822 46.2388 11.3821 45.841 11.9795C45.4495 12.5768 44.8717 13.0414 44.1076 13.3733C43.3435 13.6991 42.409 13.862 41.3039 13.862ZM48.2304 7.01981C48.2304 5.87944 48.4135 4.88087 48.7798 4.02409C49.1461 3.16128 49.6576 2.44025 50.3143 1.86102C50.9709 1.28179 51.7351 0.847361 52.6065 0.557743C53.4779 0.268127 54.4188 0.12332 55.4292 0.12332C56.0796 0.12332 56.6226 0.159521 57.0583 0.231925C57.5004 0.298297 57.8793 0.373717 58.195 0.458189C58.517 0.54266 58.8201 0.612048 59.1043 0.666351L58.6496 3.56251C58.517 3.47805 58.3276 3.37546 58.0813 3.2548C57.8414 3.12809 57.5256 3.01948 57.1341 2.92898C56.7489 2.83243 56.2753 2.78417 55.7133 2.78417C54.9934 2.78417 54.343 2.94104 53.7621 3.2548C53.1812 3.56251 52.7202 4.01805 52.3792 4.62142C52.0382 5.21876 51.8677 5.95185 51.8677 6.82069C51.8677 7.70764 52.0161 8.48298 52.3129 9.14668C52.616 9.81037 53.0643 10.3293 53.6579 10.7034C54.2515 11.0714 54.9871 11.2554 55.8649 11.2554C56.2627 11.2554 56.6669 11.2102 57.0773 11.1197C57.4877 11.0231 57.8571 10.9085 58.1855 10.7758C58.5139 10.643 58.7569 10.5133 58.9148 10.3866V13.156C58.6749 13.2526 58.3908 13.3552 58.0624 13.4638C57.7403 13.5724 57.3645 13.6659 56.9352 13.7443C56.5059 13.8228 56.0164 13.862 55.467 13.862C53.9136 13.862 52.597 13.5814 51.5172 13.0203C50.4438 12.4592 49.6259 11.6657 49.064 10.64C48.5082 9.61429 48.2304 8.40755 48.2304 7.01981ZM67.2228 13.862C65.8336 13.8861 64.6464 13.6176 63.6614 13.0565C62.6826 12.4893 61.9375 11.6838 61.426 10.64C60.9208 9.59015 60.6808 8.35324 60.7061 6.9293C60.7376 5.33641 61.044 4.04823 61.6249 3.06474C62.2121 2.07522 63.0109 1.34816 64.0213 0.883562C65.0317 0.412937 66.1873 0.159523 67.488 0.12332C68.8205 0.0871181 69.9633 0.346567 70.9169 0.901664C71.8705 1.45073 72.5966 2.24415 73.0955 3.28195C73.6006 4.31974 73.8407 5.54759 73.8153 6.9655C73.7838 8.55839 73.4869 9.85865 72.925 10.8663C72.363 11.8739 71.5925 12.6191 70.6138 13.1017C69.6351 13.5844 68.5047 13.8378 67.2228 13.862ZM67.2797 11.4365C68.189 11.4365 68.9057 11.0865 69.4298 10.3866C69.9539 9.68065 70.216 8.51013 70.216 6.875C70.216 6.03029 70.1149 5.28815 69.9129 4.64857C69.7109 4.009 69.4045 3.51122 68.9941 3.15524C68.5837 2.79926 68.0627 2.62126 67.4312 2.62126C66.8565 2.62126 66.3325 2.75702 65.8589 3.02853C65.3853 3.30005 65.0064 3.75559 64.7222 4.39516C64.4444 5.03473 64.3055 5.90961 64.3055 7.01981C64.3055 7.87659 64.416 8.63683 64.637 9.30053C64.8579 9.96423 65.1863 10.4861 65.6221 10.8663C66.0641 11.2464 66.6166 11.4365 67.2797 11.4365Z" fill="#45464F"/>
</g>
<defs>
<clipPath id="clip0_5_40">
<rect width="74" height="14" fill="white"/>
</clipPath>
</defs>
</svg>
